<?xml version="1.0" encoding="utf-8"?>
<svg xmlns="http://www.w3.org/2000/svg" height="512pt" version="1.1" viewBox="0 0 512 512" width="512pt">
<path d="M 0.00 0.00 L 512.00 0.00 L 512.00 512.00 L 0.00 512.00 L 0.00 0.00 M 60.35 156.36 C 60.90 164.62 59.35 172.76 59.27 181.00 C 58.20 185.80 58.71 190.87 56.86 195.50 C 55.52 198.86 54.60 202.43 54.72 206.08 C 54.98 209.52 52.66 212.46 52.65 215.87 C 52.49 219.40 52.80 223.02 51.70 226.44 C 50.00 231.55 50.87 237.00 49.67 242.20 C 49.56 246.72 49.16 251.22 47.49 255.46 C 46.69 261.93 45.45 268.36 45.42 274.90 C 45.29 279.11 42.32 282.69 42.56 286.94 C 42.51 289.49 42.69 292.08 42.01 294.58 C 40.25 301.26 40.71 308.22 39.58 314.99 C 40.11 319.64 36.37 323.33 36.60 327.91 C 36.75 332.45 36.09 336.94 35.24 341.39 C 48.16 341.59 61.08 341.50 74.00 341.52 C 165.33 341.32 256.66 341.60 347.99 341.48 C 352.70 341.64 357.37 341.02 362.05 340.59 C 373.01 340.54 384.07 337.37 392.90 330.76 C 402.86 324.23 408.06 312.35 408.56 300.72 C 410.58 284.85 413.86 269.02 413.45 252.95 C 413.54 249.13 411.44 245.74 409.60 242.54 C 404.94 234.89 396.57 230.30 388.02 228.39 C 383.12 227.05 378.01 227.45 373.00 227.39 C 349.82 227.36 326.64 227.47 303.47 227.33 C 303.42 224.47 303.32 221.57 303.91 218.75 C 304.85 214.35 304.15 209.75 305.56 205.42 C 363.06 205.35 420.56 205.38 478.06 205.37 C 480.19 205.40 482.29 204.94 484.37 204.52 C 485.06 201.04 485.60 197.52 485.49 193.96 C 485.29 188.52 486.98 183.27 487.46 177.90 C 487.72 170.50 489.89 163.29 489.72 155.85 C 478.51 155.37 467.24 155.86 456.00 155.66 C 407.66 155.64 359.31 155.71 310.97 155.73 C 299.85 157.11 288.46 155.31 277.50 158.13 C 267.78 160.15 258.61 165.54 252.90 173.76 C 249.69 178.49 248.96 184.28 247.53 189.68 C 246.82 192.75 245.54 195.72 245.58 198.92 C 245.64 207.01 243.51 214.93 243.58 223.03 C 243.77 226.73 242.50 230.28 242.52 233.96 C 242.58 237.99 242.38 242.05 242.89 246.05 C 244.24 252.08 247.38 257.85 252.11 261.88 C 259.19 267.76 268.37 270.62 277.42 271.52 C 289.54 273.23 301.82 272.12 314.00 272.77 C 320.97 273.51 328.01 273.43 335.00 273.16 C 340.58 272.42 346.26 272.49 351.79 273.61 C 351.16 277.32 350.69 281.12 349.33 284.66 C 347.42 288.90 342.41 290.66 338.04 290.50 C 318.03 290.65 298.01 290.67 278.00 290.67 C 233.66 290.56 189.33 290.99 144.99 290.59 C 128.54 290.42 112.08 290.81 95.63 290.40 C 97.18 289.03 98.88 287.81 100.29 286.29 C 101.68 284.47 101.32 282.08 101.55 279.95 C 101.74 275.77 103.26 271.78 103.49 267.60 C 104.09 259.01 106.20 250.64 107.02 242.08 C 108.95 229.90 110.38 217.63 112.41 205.47 C 127.94 205.00 143.48 205.48 159.01 205.26 C 165.48 204.66 172.07 204.20 178.51 205.43 C 178.89 211.64 177.30 217.71 177.19 223.90 C 175.69 228.95 175.41 234.21 174.39 239.36 C 173.73 243.29 174.25 247.46 172.64 251.18 C 170.56 256.03 172.19 261.47 170.90 266.50 C 170.40 272.54 169.54 278.55 168.39 284.51 C 186.95 284.44 205.52 284.49 224.09 284.45 C 225.47 284.22 227.36 284.81 228.21 283.36 C 229.43 279.99 229.34 276.37 229.75 272.86 C 231.55 259.56 232.77 246.19 235.01 232.94 C 237.06 217.66 238.41 202.30 240.32 187.00 C 239.43 179.47 238.25 171.04 232.43 165.56 C 225.17 158.65 214.88 155.75 205.04 155.69 C 159.01 155.72 112.99 155.66 66.97 155.67 C 64.74 155.65 62.54 156.00 60.35 156.36 M 426.34 215.37 C 423.80 222.82 425.14 230.72 423.52 238.30 C 422.46 244.79 421.48 251.32 421.41 257.90 C 420.81 261.93 419.33 265.85 419.57 269.99 C 418.89 278.33 417.38 286.61 416.62 294.96 C 416.84 300.70 415.28 306.30 415.42 312.04 C 415.39 315.86 413.12 319.19 412.67 322.94 C 412.20 329.18 411.72 335.46 410.40 341.60 C 425.60 341.78 440.81 341.41 456.02 341.43 C 459.21 341.53 462.36 341.05 465.48 340.41 C 466.87 334.14 467.32 327.70 467.75 321.31 C 468.45 315.89 469.42 310.49 469.56 305.02 C 472.53 281.34 474.50 257.57 477.13 233.86 C 477.77 227.73 478.98 221.64 478.60 215.44 C 461.18 215.56 443.76 215.66 426.34 215.37 M 35.62 367.89 C 35.49 373.59 35.69 379.29 35.63 385.00 C 35.72 390.21 35.23 395.50 36.38 400.64 C 179.84 400.78 323.29 400.59 466.75 400.75 C 466.78 389.30 466.73 377.85 466.73 366.40 C 408.15 366.19 349.58 366.42 291.00 366.33 C 206.27 366.38 121.53 366.19 36.80 366.44 C 36.50 366.80 35.91 367.52 35.62 367.89 Z" fill="transparent" opacity="1.00" stroke="transparent" stroke-width="0.25"/>
<path d="M 60.35 156.36 C 62.54 156.00 64.74 155.65 66.97 155.67 C 112.99 155.66 159.01 155.72 205.04 155.69 C 214.88 155.75 225.17 158.65 232.43 165.56 C 238.25 171.04 239.43 179.47 240.32 187.00 C 238.41 202.30 237.06 217.66 235.01 232.94 C 232.77 246.19 231.55 259.56 229.75 272.86 C 229.34 276.37 229.43 279.99 228.21 283.36 C 227.36 284.81 225.47 284.22 224.09 284.45 C 205.52 284.49 186.95 284.44 168.39 284.51 C 169.54 278.55 170.40 272.54 170.90 266.50 C 172.19 261.47 170.56 256.03 172.64 251.18 C 174.25 247.46 173.73 243.29 174.39 239.36 C 175.41 234.21 175.69 228.95 177.19 223.90 C 177.30 217.71 178.89 211.64 178.51 205.43 C 172.07 204.20 165.48 204.66 159.01 205.26 C 143.48 205.48 127.94 205.00 112.41 205.47 C 110.38 217.63 108.95 229.90 107.02 242.08 C 106.20 250.64 104.09 259.01 103.49 267.60 C 103.26 271.78 101.74 275.77 101.55 279.95 C 101.32 282.08 101.68 284.47 100.29 286.29 C 98.88 287.81 97.18 289.03 95.63 290.40 C 112.08 290.81 128.54 290.42 144.99 290.59 C 189.33 290.99 233.66 290.56 278.00 290.67 C 298.01 290.67 318.03 290.65 338.04 290.50 C 342.41 290.66 347.42 288.90 349.33 284.66 C 350.69 281.12 351.16 277.32 351.79 273.61 C 346.26 272.49 340.58 272.42 335.00 273.16 C 328.01 273.43 320.97 273.51 314.00 272.77 C 301.82 272.12 289.54 273.23 277.42 271.52 C 268.37 270.62 259.19 267.76 252.11 261.88 C 247.38 257.85 244.24 252.08 242.89 246.05 C 242.38 242.05 242.58 237.99 242.52 233.96 C 242.50 230.28 243.77 226.73 243.58 223.03 C 243.51 214.93 245.64 207.01 245.58 198.92 C 245.54 195.72 246.82 192.75 247.53 189.68 C 248.96 184.28 249.69 178.49 252.90 173.76 C 258.61 165.54 267.78 160.15 277.50 158.13 C 288.46 155.31 299.85 157.11 310.97 155.73 C 359.31 155.71 407.66 155.64 456.00 155.66 C 467.24 155.86 478.51 155.37 489.72 155.85 C 489.89 163.29 487.72 170.50 487.46 177.90 C 486.98 183.27 485.29 188.52 485.49 193.96 C 485.60 197.52 485.06 201.04 484.37 204.52 C 482.29 204.94 480.19 205.40 478.06 205.37 C 420.56 205.38 363.06 205.35 305.56 205.42 C 304.15 209.75 304.85 214.35 303.91 218.75 C 303.32 221.57 303.42 224.47 303.47 227.33 C 326.64 227.47 349.82 227.36 373.00 227.39 C 378.01 227.45 383.12 227.05 388.02 228.39 C 396.57 230.30 404.94 234.89 409.60 242.54 C 411.44 245.74 413.54 249.13 413.45 252.95 C 413.86 269.02 410.58 284.85 408.56 300.72 C 408.06 312.35 402.86 324.23 392.90 330.76 C 384.07 337.37 373.01 340.54 362.05 340.59 C 357.37 341.02 352.70 341.64 347.99 341.48 C 256.66 341.60 165.33 341.32 74.00 341.52 C 61.08 341.50 48.16 341.59 35.24 341.39 C 36.09 336.94 36.75 332.45 36.60 327.91 C 36.37 323.33 40.11 319.64 39.58 314.99 C 40.71 308.22 40.25 301.26 42.01 294.58 C 42.69 292.08 42.51 289.49 42.56 286.94 C 42.32 282.69 45.29 279.11 45.42 274.90 C 45.45 268.36 46.69 261.93 47.49 255.46 C 49.16 251.22 49.56 246.72 49.67 242.20 C 50.87 237.00 50.00 231.55 51.70 226.44 C 52.80 223.02 52.49 219.40 52.65 215.87 C 52.66 212.46 54.98 209.52 54.72 206.08 C 54.60 202.43 55.52 198.86 56.86 195.50 C 58.71 190.87 58.20 185.80 59.27 181.00 C 59.35 172.76 60.90 164.62 60.35 156.36 Z" fill="#131414" opacity="1.00" stroke="#131414" stroke-width="0.25"/>
<path d="M 426.34 215.37 C 443.76 215.66 461.18 215.56 478.60 215.44 C 478.98 221.64 477.77 227.73 477.13 233.86 C 474.50 257.57 472.53 281.34 469.56 305.02 C 469.42 310.49 468.45 315.89 467.75 321.31 C 467.32 327.70 466.87 334.14 465.48 340.41 C 462.36 341.05 459.21 341.53 456.02 341.43 C 440.81 341.41 425.60 341.78 410.40 341.60 C 411.72 335.46 412.20 329.18 412.67 322.94 C 413.12 319.19 415.39 315.86 415.42 312.04 C 415.28 306.30 416.84 300.70 416.62 294.96 C 417.38 286.61 418.89 278.33 419.57 269.99 C 419.33 265.85 420.81 261.93 421.41 257.90 C 421.48 251.32 422.46 244.79 423.52 238.30 C 425.14 230.72 423.80 222.82 426.34 215.37 Z" fill="#131414" opacity="1.00" stroke="#131414" stroke-width="0.25"/>
<path d="M 35.62 367.89 C 35.91 367.52 36.50 366.80 36.80 366.44 C 121.53 366.19 206.27 366.38 291.00 366.33 C 349.58 366.42 408.15 366.19 466.73 366.40 C 466.73 377.85 466.78 389.30 466.75 400.75 C 323.29 400.59 179.84 400.78 36.38 400.64 C 35.23 395.50 35.72 390.21 35.63 385.00 C 35.69 379.29 35.49 373.59 35.62 367.89 Z" fill="#eb1b1b" opacity="1.00" stroke="#eb1b1b" stroke-width="0.25"/>
</svg>