<?xml version="1.0" encoding="UTF-8" standalone="no"?>
<!-- Created with Inkscape (http://www.inkscape.org/) -->

<svg
   version="1.1"
   id="svg1"
   width="1024"
   height="1024"
   viewBox="0 0 1024 1024"
   xmlns="http://www.w3.org/2000/svg"
   xmlns:svg="http://www.w3.org/2000/svg">
  <defs
     id="defs1">
    <clipPath
       clipPathUnits="userSpaceOnUse"
       id="clipPath1">
      <circle
         style="fill:#008a9a;stroke-width:0.918788"
         id="circle1"
         cx="510.67355"
         cy="517.96893"
         r="510" />
    </clipPath>
  </defs>
  <g
     id="g1"
     style="display:inline"
     clip-path="url(#clipPath1)">
    <g
       id="g2"
       style="display:inline">
      <path
         style="fill:#fb9993"
         d="m 284.60627,893.55996 c -3.9791,-1.7568 -9.60672,-7.40039 -11.24591,-11.27784 C 272.23385,879.6174 272,853.63817 272,731.15456 c 0,-117.15848 -0.25988,-148.10559 -1.25,-148.85202 -0.6875,-0.5183 -5.525,-2.65668 -10.75,-4.75195 -5.225,-2.09528 -13.85374,-5.82834 -19.17498,-8.29568 l -9.67499,-4.48608 -15.47322,10.11558 c -16.73005,10.93724 -20.26317,12.08463 -25.73942,8.359 -3.44682,-2.34495 -57.1138,-56.87526 -58.65195,-59.59547 -1.55057,-2.74215 -1.61017,-7.16323 -0.13433,-9.96368 0.6331,-1.20134 5.99535,-8.71699 11.91611,-16.70144 l 10.765,-14.51718 -3.63195,-7.48282 C 148.2027,470.86727 144.26214,461.2 141.44347,453.5 l -5.12485,-14 -19.22261,-4.09108 c -14.90193,-3.17152 -19.714114,-4.58239 -21.409309,-6.27692 -2.169747,-2.1689 -2.188881,-2.51014 -2.467869,-44.01185 -0.173456,-25.80303 0.09676,-42.82002 0.705366,-44.42077 1.59353,-4.19131 4.63993,-5.36022 22.575802,-8.66237 9.35,-1.72142 17.67782,-3.32947 18.50626,-3.57346 0.88039,-0.25928 3.31811,-5.5378 5.86676,-12.70358 2.39827,-6.74298 6.329,-16.47975 8.73496,-21.63726 l 4.37447,-9.37729 -10.49055,-14.12271 c -12.47761,-16.79776 -13.91581,-19.50114 -13.01795,-24.46993 0.56465,-3.12484 5.0251,-8.02487 30.86134,-33.90278 36.94641,-37.00599 31.51244,-35.02033 54.04793,-19.75 8.52257,5.775 15.81873,10.5 16.2137,10.5 0.39496,0 5.70973,-2.47966 11.8106,-5.51035 6.10086,-3.03069 16.04248,-7.43726 22.09248,-9.79237 l 11,-4.28202 3.03728,-20.72219 c 2.82623,-19.28224 3.22737,-20.91226 5.77273,-23.45763 L 288.04545,136.5 h 46.56386 46.56386 l 2.36884,2.75394 c 1.30286,1.51467 2.61553,4.21467 2.91703,6 3.08912,18.29197 6.56447,36.97508 7.01293,37.7007 0.30574,0.4947 2.23712,1.44024 4.29196,2.10121 8.23253,2.64812 22.25931,8.46304 31.53611,13.07357 5.39003,2.67882 10.27768,4.87058 10.86146,4.87058 0.58378,0 6.07376,-3.53121 12.19996,-7.84714 C 470.94171,182.06301 471.05447,182 475.89849,182 h 4.43421 l 24.08365,23.78108 c 13.24601,13.0796 26.90343,26.4392 30.34983,29.688 6.5703,6.19359 9.04423,11.16585 7.87446,15.82658 -0.4813,1.91768 -12.29343,18.14611 -22.91889,31.48778 -0.73875,0.9276 0.67321,4.80917 5.09267,14 7.70063,16.01444 12.40047,30.33185 15.8232,48.20319 4.20302,21.94552 3.77917,22.27922 -27.71223,21.81866 -19.65251,-0.28742 -20.9969,-0.42812 -22.97078,-2.40405 -1.3462,-1.3476 -3.27532,-6.56723 -5.39,-14.58373 -4.33247,-16.42386 -6.11571,-21.719 -10.54678,-31.31751 -21.018,-45.52889 -64.0198,-77.47879 -114.33518,-84.94991 -47.78951,-7.09606 -94.7585,7.68384 -128.02326,40.28552 -33.8724,33.19723 -50.47258,78.39136 -45.7212,124.47642 2.29983,22.30674 7.56231,39.04618 19.98406,63.56733 l 6.89984,13.62064 0.64884,17.5 c 0.35686,9.625 1.13882,19.525 1.7377,22 5.04188,20.83682 23.68506,33.90306 70.16737,49.17744 19.92486,6.54743 22.0428,7.46213 23.74626,10.25557 1.80333,2.95723 1.8704,8.05024 1.874,142.31699 L 311,856 h 40.45295 c 29.23358,0 41.18015,0.33134 43.07499,1.19469 4.51237,2.05597 5.47206,5.4465 5.47206,19.33257 0,12.62237 -9.8e-4,12.62756 -2.92308,15.54966 L 394.15385,895 340.82692,894.9188 c -40.95288,-0.0624 -53.99838,-0.37767 -56.22065,-1.35882 z m 598.5993,0.39244 C 877.69062,891.73908 878,907.21657 878,633.53212 V 381 h -41.03212 c -45.3245,0 -46.43518,-0.1354 -49.48477,-6.03267 -1.31865,-2.54998 -1.58284,-5.47177 -1.31642,-14.5587 0.31916,-10.88582 0.451,-11.48607 3.10545,-14.13855 l 2.77215,-2.77008 53.02565,-0.27567 c 33.15875,-0.17239 54.41274,0.0994 56.72786,0.72532 5.04985,1.36537 11.07654,6.56351 13.30939,11.47961 1.78343,3.92663 1.84966,13.44579 1.87085,268.89766 l 0.022,264.82693 -2.92308,2.92307 -2.92307,2.92308 -12.82693,-0.0634 c -7.0548,-0.0349 -13.85941,-0.47775 -15.12135,-0.98421 z M 520.92308,756.07692 518,753.15385 v -13.02116 c 0,-12.32295 0.12941,-13.17161 2.41342,-15.82693 L 522.82683,721.5 h 80.16862 80.16861 l 2.91797,3.26578 c 2.86654,3.20821 2.91797,3.46908 2.91797,14.79966 0,12.72645 -1.04954,16.22484 -5.47206,18.23987 C 681.56617,758.69916 661.13089,759 602.37602,759 H 523.84615 Z M 532,661.24077 c -8.26328,-0.38947 -9.88067,-0.99698 -12.02728,-4.51761 -1.66106,-2.72427 -1.96582,-5.05734 -1.96898,-15.07316 L 518,629.8 l 3.4,-3.4 3.4,-3.4 h 107.14966 c 115.70338,0 111.26815,-0.19856 114.10843,5.10853 1.56688,2.92776 1.63868,24.78501 0.0908,27.64147 -3.12856,5.77343 2.97427,5.45469 -107.38925,5.6087 C 583.06683,661.43641 535.025,661.38335 532,661.24077 Z M 254.5,527.04981 c -9.61881,-1.24138 -17.57494,-7.40523 -20.90364,-16.19468 -1.49924,-3.95873 -1.6242,-13.41152 -1.37286,-103.85513 0.30918,-111.26077 -0.27399,-102.61618 7.44317,-110.33333 7.66149,-7.6615 0.92918,-7.13533 95.10919,-7.43334 l 84.27587,-0.26667 5.00356,2.15247 c 6.03664,2.5969 13.08584,10.07085 14.75591,15.64505 0.88376,2.94971 1.18629,29.21308 1.17903,102.35184 l -0.01,98.38398 -2.36375,5 c -2.91484,6.16571 -6.62021,9.73102 -13.08368,12.58916 -4.96663,2.19623 -4.97248,2.19639 -85,2.40116 -44.01817,0.11263 -82.28303,-0.0856 -85.03303,-0.44051 z m 129.34062,-42.09432 c 19.91124,-8.79431 22.15744,-35.97929 3.98146,-48.18642 -8.03458,-5.39609 -19.20369,-6.16584 -27.56585,-1.89979 l -4.09898,2.09114 -13.32862,-10.09407 C 325.56678,413.79356 325.36295,413.57492 324.58708,407.2989 l -0.64299,-5.20109 17.54406,-12.49115 17.54407,-12.49114 3.73389,1.60765 c 5.70025,2.45428 15.746,2.17552 21.4708,-0.59581 6.05614,-2.93173 13.40125,-11.06987 14.85123,-16.45468 1.47059,-5.46137 0.74337,-15.25613 -1.47394,-19.85213 -5.89253,-12.21392 -20.71889,-18.60369 -33.39631,-14.39292 -6.3947,2.12398 -13.39256,8.23602 -16.29554,14.23278 -2.30525,4.762 -3.15079,14.19752 -1.73308,19.33959 0.64503,2.33953 -0.47825,3.27534 -17.5,14.5794 -17.74468,11.78414 -18.2626,12.048 -21.18927,10.7951 -4.05254,-1.73488 -15.77087,-1.70599 -19.97173,0.0492 -5.34991,2.23534 -12.06964,9.08266 -14.53304,14.80899 -3.15653,7.33755 -2.50547,17.85565 1.48485,23.98832 8.09694,12.44411 21.68628,16.51192 34.92056,10.45307 l 5.89949,-2.70088 6.59994,4.81588 c 3.62996,2.64874 10.30074,7.49226 14.82394,10.76338 8.1804,5.91596 8.22418,5.97137 8.25558,10.4475 0.0917,13.068 8.46423,24.19072 20.81274,27.64914 5.74951,1.61025 11.86782,1.03611 18.04829,-1.69365 z M 494.357,480.00842 C 489.80211,478.17029 489,475.42904 489,461.70057 v -12.85442 l 2.92308,-2.92307 L 494.84615,443 H 652 809.15385 l 2.92307,2.92308 c 2.9225,2.92249 2.92308,2.9256 2.92308,15.56574 0,6.95346 -0.46334,13.50842 -1.02964,14.56657 -2.77903,5.19266 5.29687,4.94958 -162.1707,4.88122 -85.41481,-0.0349 -156.26401,-0.45255 -157.44266,-0.92819 z"
         id="path4" />
      <path
         style="fill:#74d4cc"
         d="m 450.31382,823.04977 c -1.7524,-1.06851 -3.6649,-2.83724 -4.25,-3.93052 C 445.32802,817.74439 445,777.82183 445,689.64266 V 562.15385 l 3.07692,-3.07693 L 451.15385,556 H 476.57692 502 v 11.5 11.5 h -16 -16 v 111 111 h 16 16 v 12 12 l -24.25,-0.004 c -22.24795,-0.003 -24.51305,-0.16413 -27.43618,-1.94649 z m 310.35285,1.28356 C 760.3,823.96667 760,818.56667 760,812.33333 V 801 h 16 16 V 690 579 H 776 760 V 567.5 556 h 25.1 25.1 l 3.4,3.4 3.4,3.4 v 127.37749 c 0,116.14319 -0.14382,127.58283 -1.63069,129.70564 -3.18948,4.55362 -6.62066,5.11687 -31.17052,5.11687 -12.576,0 -23.16546,-0.3 -23.53212,-0.66667 z M 529.25,661.28375 c 1.5125,-0.22913 3.9875,-0.22913 5.5,0 1.5125,0.22912 0.275,0.41659 -2.75,0.41659 -3.025,0 -4.2625,-0.18747 -2.75,-0.41659 z m 22.03651,-0.0238 c 3.18258,-0.19905 8.13258,-0.1972 11,0.004 2.86742,0.20131 0.26349,0.36417 -5.78651,0.36191 -6.05,-0.002 -8.39607,-0.16696 -5.21349,-0.36601 z m 17.46349,0.0778 c 0.6875,-0.27741 1.8125,-0.27741 2.5,0 0.6875,0.27741 0.125,0.50439 -1.25,0.50439 -1.375,0 -1.9375,-0.22698 -1.25,-0.50439 z m 5.51903,-0.0307 c 0.97297,-0.25354 2.32297,-0.23687 3,0.0371 0.67703,0.27393 -0.11903,0.48137 -1.76903,0.46099 -1.65,-0.0204 -2.20394,-0.2445 -1.23097,-0.49804 z m 20.98097,-0.0355 c 2.0625,-0.21574 5.4375,-0.21574 7.5,0 2.0625,0.21575 0.375,0.39226 -3.75,0.39226 -4.125,0 -5.8125,-0.17651 -3.75,-0.39226 z m 17,-0.007 c 2.6125,-0.206 6.8875,-0.206 9.5,0 2.6125,0.206 0.475,0.37454 -4.75,0.37454 -5.225,0 -7.3625,-0.16854 -4.75,-0.37454 z m 17.01903,0.0421 c 0.97297,-0.25354 2.32297,-0.23687 3,0.0371 0.67703,0.27393 -0.11903,0.48137 -1.76903,0.46099 -1.65,-0.0204 -2.20394,-0.2445 -1.23097,-0.49804 z m 12.52016,-0.0484 c 3.45905,-0.19583 8.85905,-0.19422 12,0.004 3.14094,0.19781 0.31081,0.35803 -6.28919,0.35606 -6.6,-0.002 -9.16987,-0.16382 -5.71081,-0.35965 z m 20.93851,0.0197 c 1.77523,-0.22091 4.92523,-0.22454 7,-0.008 2.07476,0.21648 0.6223,0.39722 -3.2277,0.40166 -3.85,0.004 -5.54754,-0.17268 -3.7723,-0.39359 z m 12.54133,0.0287 c 0.97297,-0.25354 2.32297,-0.23687 3,0.0371 0.67703,0.27393 -0.11903,0.48137 -1.76903,0.46099 -1.65,-0.0204 -2.20394,-0.2445 -1.23097,-0.49804 z m 6.49263,-0.0143 c 1.24391,-0.23919 3.04391,-0.23011 4,0.0202 0.95609,0.25029 -0.0617,0.446 -2.26166,0.4349 -2.2,-0.0111 -2.98225,-0.21589 -1.73834,-0.45508 z m 14.48834,-0.0317 c 3.1625,-0.19845 8.3375,-0.19845 11.5,0 3.1625,0.19845 0.575,0.36082 -5.75,0.36082 -6.325,0 -8.9125,-0.16237 -5.75,-0.36082 z m 27.5,0.0767 c 0.6875,-0.27741 1.8125,-0.27741 2.5,0 0.6875,0.27741 0.125,0.50439 -1.25,0.50439 -1.375,0 -1.9375,-0.22698 -1.25,-0.50439 z m 10,0 c 0.6875,-0.27741 1.8125,-0.27741 2.5,0 0.6875,0.27741 0.125,0.50439 -1.25,0.50439 -1.375,0 -1.9375,-0.22698 -1.25,-0.50439 z M 747.19495,650.5 c 0.0204,-1.65 0.2445,-2.20394 0.49804,-1.23097 0.25354,0.97297 0.23687,2.32297 -0.0371,3 -0.27393,0.67703 -0.48137,-0.11903 -0.46099,-1.76903 z m 0.0774,-14.5 c 0,-2.475 0.19502,-3.4875 0.43337,-2.25 0.23836,1.2375 0.23836,3.2625 0,4.5 -0.23835,1.2375 -0.43337,0.225 -0.43337,-2.25 z M 167.98025,562.25 158.5,552.5 l 9.75,9.48025 C 177.3057,570.78541 178.45489,572 177.73025,572 c -0.14836,0 -4.53586,-4.3875 -9.75,-9.75 z m 87.28878,-34.94299 c 0.97297,-0.25354 2.32297,-0.23687 3,0.0371 0.67703,0.27393 -0.11903,0.48137 -1.76903,0.46099 -1.65,-0.0204 -2.20394,-0.2445 -1.23097,-0.49804 z m 75,0 c 0.97297,-0.25354 2.32297,-0.23687 3,0.0371 0.67703,0.27393 -0.11903,0.48137 -1.76903,0.46099 -1.65,-0.0204 -2.20394,-0.2445 -1.23097,-0.49804 z m 19,0 c 0.97297,-0.25354 2.32297,-0.23687 3,0.0371 0.67703,0.27393 -0.11903,0.48137 -1.76903,0.46099 -1.65,-0.0204 -2.20394,-0.2445 -1.23097,-0.49804 z m 34.48097,0.0307 c 0.6875,-0.27741 1.8125,-0.27741 2.5,0 0.6875,0.27741 0.125,0.50439 -1.25,0.50439 -1.375,0 -1.9375,-0.22698 -1.25,-0.50439 z m 5,0 c 0.6875,-0.27741 1.8125,-0.27741 2.5,0 0.6875,0.27741 0.125,0.50439 -1.25,0.50439 -1.375,0 -1.9375,-0.22698 -1.25,-0.50439 z m 20,-0.0611 c 1.7875,-0.22182 4.7125,-0.22182 6.5,0 1.7875,0.22183 0.325,0.40333 -3.25,0.40333 -3.575,0 -5.0375,-0.1815 -3.25,-0.40333 z M 213.34941,488 c 0,-4.675 0.17226,-6.5875 0.3828,-4.25 0.21053,2.3375 0.21053,6.1625 0,8.5 -0.21054,2.3375 -0.3828,0.425 -0.3828,-4.25 z M 371.25,487.31067 c 0.9625,-0.25152 2.5375,-0.25152 3.5,0 0.9625,0.25153 0.175,0.45733 -1.75,0.45733 -1.925,0 -2.7125,-0.2058 -1.75,-0.45733 z m -74.98097,-49.00366 c 0.97297,-0.25354 2.32297,-0.23687 3,0.0371 0.67703,0.27393 -0.11903,0.48137 -1.76903,0.46099 -1.65,-0.0204 -2.20394,-0.2445 -1.23097,-0.49804 z M 510.9879,212.25 495.5,196.5 l 15.75,15.4879 c 8.6625,8.51835 15.75,15.60585 15.75,15.75 0,0.71454 -1.62372,-0.85603 -16.0121,-15.4879 z M 182.95821,189.75 C 187.10217,185.33481 188,184.54091 188,185.29179 c 0,0.16049 -2.1375,2.29799 -4.75,4.75 L 178.5,194.5 Z"
         id="path3" />
      <path
         style="fill:#008a9a"
         d="M 0,512 V 0 h 512 512 v 512 512 H 512 0 Z M 397.07692,892.07692 400,889.15385 v -13.14267 c 0,-7.22846 -0.46334,-14.00842 -1.02964,-15.06657 C 396.41592,856.1716 394.77025,856 351.54966,856 H 311 V 717.0651 c 0,-85.87576 -0.36485,-139.89454 -0.95537,-141.4477 -1.40299,-3.69016 -4.12391,-5.0781 -18.76012,-9.56958 C 255.44072,555.0483 232.98944,543.51837 223.13216,531.04797 216.0567,522.09685 214.80963,517.19671 213.95811,495 l -0.74808,-19.5 -8.44289,-16.57345 C 192.94545,435.72049 188.3139,420.46248 185.9323,396.87768 183.26662,370.47968 188.15061,343.3877 200.15191,318 c 7.77368,-16.44455 16.61871,-28.86155 30.30294,-42.54047 21.13807,-21.12987 45.52594,-34.40965 74.34615,-40.48327 12.71186,-2.67893 36.58979,-3.66482 49.78165,-2.05544 34.32913,4.1881 64.86083,18.71692 88.42761,42.07918 20.84953,20.66859 31.80092,39.95901 40.36656,71.10403 2.9589,10.75866 5.15275,16.86999 6.56187,18.27911 2.03342,2.03341 3.02588,2.11686 25.17567,2.11686 h 23.05881 l 2.41341,-2.80576 c 3.0155,-3.50572 3.00574,-5.00684 -0.13364,-20.5686 -3.32443,-16.47907 -9.04595,-33.44782 -15.94202,-47.28055 -6.45534,-12.94867 -7.14115,-9.90402 6.05231,-26.86925 13.0372,-16.7643 14.2627,-19.63501 11.00351,-25.7755 -1.30207,-2.45317 -33.11124,-34.4317 -53.2019,-53.48516 -7.58014,-7.18881 -8.43296,-7.71598 -12.5,-7.72685 -3.90207,-0.0104 -6.01285,1.10571 -19.90891,10.52756 l -15.54406,10.53924 -10.95594,-5.17403 C 423.43017,195.03538 412.875,190.56181 406,187.93984 l -12.5,-4.76724 -1.18581,-5.8363 C 391.662,174.12634 389.97834,164.75 388.57274,156.5 c -2.3707,-13.91447 -2.77451,-15.19901 -5.57997,-17.75 L 379.96845,136 h -45.03389 c -49.15371,0 -49.48673,0.0367 -51.78977,5.70284 -0.6253,1.53844 -2.25886,10.67216 -3.63014,20.29716 -1.37127,9.625 -2.70432,18.40374 -2.96233,19.50831 -0.33876,1.45028 -2.63411,2.80047 -8.26071,4.8592 -4.28539,1.56798 -14.34069,5.98137 -22.34512,9.80752 l -14.55351,6.95665 -15.72457,-10.56584 c -16.97725,-11.40755 -20.2613,-12.53196 -25.72905,-8.80925 -3.62724,2.4696 -57.40562,57.28635 -58.79248,59.92767 -2.98714,5.68907 -1.05842,9.61861 15.39141,31.3583 l 7.2206,9.54256 -2.97178,6.45744 c -3.77135,8.19484 -11.21549,27.14083 -12.85999,32.7298 -0.86569,2.94214 -1.90627,4.41284 -3.34211,4.72358 -1.14675,0.24817 -9.44377,1.84384 -18.43782,3.54592 -8.99404,1.70209 -17.435682,3.58809 -18.759203,4.19113 -4.212716,1.91944 -4.521967,5.57624 -4.194985,49.60436 L 93.5,427.1747 l 2.753944,2.36808 c 1.51467,1.30244 4.439666,2.66536 6.499996,3.0287 2.06033,0.36334 10.42091,2.0819 18.57905,3.81902 l 14.83299,3.15839 4.74546,12.97556 c 2.61001,7.13655 6.53278,16.79354 8.71726,21.45997 l 3.9718,8.48442 -11.78991,16.01558 c -12.8533,17.46011 -13.78603,19.915 -9.88452,26.01558 1.05522,1.65 14.66604,15.94808 30.24626,31.7735 L 190.5,585.047 l 4.92345,-0.0235 c 4.44392,-0.0212 6.14835,-0.81456 17.5,-8.14563 6.9171,-4.46718 13.78563,-8.95964 15.2634,-9.98325 2.67996,-1.85634 2.70822,-1.85137 11,1.936 4.57223,2.08841 13.26315,5.74906 19.31315,8.13477 6.05,2.38571 11.45,4.7419 12,5.23598 0.65392,0.58744 1.17304,52.59047 1.5,150.26256 l 0.5,149.36423 3,4.25914 c 1.65,2.34254 4.98328,5.3062 7.40728,6.58593 L 287.31457,895 h 53.41964 53.41964 z M 913.92327,892.41111 917,889.82221 V 624.37127 c 0,-259.24198 -0.0446,-265.53773 -1.90842,-269.16111 -2.45501,-4.7728 -6.62127,-8.69874 -11.30946,-10.65711 C 900.57774,343.2145 892.65669,343 846.43212,343 H 792.8 l -3.4,3.4 -3.4,3.4 v 12.08422 c 0,11.93775 0.0354,12.12381 2.91723,15.35 l 2.91724,3.26578 43.08276,0.28086 L 878,381.06172 v 253.0188 c 0,272.18197 -0.27918,256.91016 4.74998,259.83937 0.96251,0.56061 7.67799,1.03298 14.92329,1.0497 12.73424,0.0294 13.27582,-0.0559 16.25,-2.55848 z M 502,813 V 801 H 486 470 V 690 579 h 16 16 V 567.5 556 h -25.42308 -25.42307 l -3.07693,3.07692 L 445,562.15385 v 127.48881 c 0,88.17917 0.32802,128.10173 1.06382,129.47659 0.5851,1.09328 2.4976,2.86201 4.25,3.93052 2.92313,1.78236 5.18823,1.94306 27.43618,1.94649 L 502,825 Z m 308.40143,10.60563 C 817.54365,820.62142 817,831.61436 817,690.17749 V 562.8 l -3.4,-3.4 -3.4,-3.4 H 785.1 760 v 11.5 11.5 h 16 16 v 111 111 h -16 -16 v 11.33333 c 0,6.23334 0.3,11.63334 0.66667,12 C 761.03333,824.7 771.62279,825 784.19879,825 c 17.29274,0 23.67878,-0.33983 26.20264,-1.39437 z M 685.89424,756.09879 689,753.19758 688.9778,740.34879 c -0.0237,-13.71238 -0.6277,-15.65718 -5.66202,-18.23175 C 681.76183,721.32236 658.48077,721 602.64247,721 h -78.48902 l -3.07672,2.58889 -3.07673,2.5889 v 13.48803 13.48803 l 2.92308,2.92307 2.92307,2.92308 h 79.47117 79.47117 z m 53.18002,-95.10285 c 1.96584,-0.54609 4.66584,-2.15383 6,-3.57274 2.17583,-2.31405 2.46178,-3.62212 2.77555,-12.69671 0.40145,-11.61064 -0.77278,-16.73414 -4.50874,-19.67284 -2.59736,-2.04309 -3.16675,-2.05354 -110.72593,-2.03141 -100.9275,0.0208 -108.25694,0.1371 -110.2481,1.75 -3.71341,3.00797 -4.36704,5.69305 -4.36704,17.93951 0,9.32361 0.34642,12.33782 1.6283,14.16796 3.63998,5.1968 0.17336,5.03952 111.8717,5.07557 65.87825,0.0213 105.31016,-0.33039 107.57426,-0.95934 z M 421.61218,526.52253 c 6.51303,-1.93416 13.07669,-7.65875 16.01412,-13.96692 l 2.35416,-5.05561 0.01,-98.5066 c 0.006,-61.16005 -0.36061,-99.79805 -0.96716,-101.91296 -1.53721,-5.35993 -5.80809,-10.73397 -11.36447,-14.29987 L 422.54684,289.5 338.21223,289.22793 c -55.14371,-0.17789 -85.64806,0.0816 -88.12926,0.74973 -5.86919,1.58041 -12.51493,7.24142 -15.47543,13.18238 L 232,308.39269 l 0.01,99.55365 0.01,99.55366 2.35416,5.05561 c 2.85392,6.12884 9.45448,12.01532 15.59568,13.90845 6.94256,2.14016 164.4523,2.19382 171.6428,0.0585 z M 361.1033,484.77012 c -9.3807,-4.54492 -15.24903,-13.56044 -15.70784,-24.13196 l -0.25441,-5.86184 -14.70167,-10.88816 c -8.08592,-5.98849 -14.98016,-10.88628 -15.32053,-10.88397 -0.34037,0.002 -2.83262,1.1273 -5.53833,2.5 -6.83232,3.46626 -16.67806,3.50213 -23.36376,0.0851 -20.64335,-10.5507 -20.18351,-39.03091 0.78324,-48.51075 5.38322,-2.43395 15.43583,-2.75893 20.45615,-0.66131 l 3.39191,1.41723 18.03447,-12.16723 18.03446,-12.16723 -0.6785,-3.5 c -2.77992,-14.33992 4.63471,-28.04292 17.55624,-32.44572 17.45952,-5.94906 36.13595,7.44674 36.17354,25.94572 0.0214,10.55138 -6.87386,20.8966 -16.69599,25.0495 -4.9008,2.07211 -15.79219,2.09576 -20.70046,0.045 l -3.78629,-1.58202 -16.86496,12.04429 c -9.27573,6.62436 -17.07842,12.38965 -17.3393,12.81177 -0.26088,0.42212 -0.22185,3.2138 0.0867,6.20373 l 0.56107,5.43625 15.40838,11.82387 15.40839,11.82387 4.72708,-2.32811 c 6.45305,-3.17816 17.89178,-3.24084 23.72707,-0.13 9.63848,5.13833 15.44827,14.64157 15.46827,25.30189 0.021,11.17537 -5.99289,20.38138 -16.40289,25.10959 -5.7985,2.63367 -16.66449,2.46945 -22.46208,-0.33947 z M 812.07692,478.07692 815,475.15385 V 462 448.84615 L 812.07692,445.92308 809.15385,443 H 651.52917 493.9045 l -2.45225,2.64602 c -2.34417,2.5294 -2.45225,3.22479 -2.45225,15.7775 0,14.02546 0.78207,16.73869 5.357,18.5849 1.17865,0.47564 72.49012,0.89333 158.46992,0.92819 L 809.15385,481 Z"
         id="path2" />
    </g>
  </g>
</svg>
