<?xml version="1.0" encoding="UTF-8" standalone="no"?>
<svg
   height="746"
   viewBox="0.662 0.309 15.790134 15.578177"
   width="746"
   version="1.1"
   id="svg2"
   sodipodi:docname="pnc.svg"
   inkscape:version="1.4.2 (ebf0e940d0, 2025-05-08)"
   xmlns:inkscape="http://www.inkscape.org/namespaces/inkscape"
   xmlns:sodipodi="http://sodipodi.sourceforge.net/DTD/sodipodi-0.dtd"
   xmlns="http://www.w3.org/2000/svg"
   xmlns:svg="http://www.w3.org/2000/svg">
  <defs
     id="defs2" />
  <sodipodi:namedview
     id="namedview2"
     pagecolor="#ffffff"
     bordercolor="#000000"
     borderopacity="0.25"
     inkscape:showpageshadow="2"
     inkscape:pageopacity="0.0"
     inkscape:pagecheckerboard="0"
     inkscape:deskcolor="#d1d1d1"
     inkscape:zoom="0.71"
     inkscape:cx="630.98592"
     inkscape:cy="373.23944"
     inkscape:window-width="1920"
     inkscape:window-height="981"
     inkscape:window-x="0"
     inkscape:window-y="0"
     inkscape:window-maximized="1"
     inkscape:current-layer="svg2" />
  <path
     d="m 8.5561584,0.202601 a 7.893,7.893 0 1 0 0,15.786 7.8935,7.8935 0 0 0 0,-15.787 m -4.245,3.829 0.003,-0.266 c 0.003,-0.868 0.364,-1.597 0.86,-1.728 0.648,-0.172 1.522,0.6 2.397,2.115 l 0.814,1.41 c -0.237,0.04 -0.437,0.198 -0.592,0.468 l -2.656,4.602 c -0.389,0.67 -0.657,1.274 -0.809,1.802 v -0.025 c -0.027,-1.216 -0.051,-3.654 -0.017,-8.378 m 2.847,9.77 -0.232,0.133 c -0.754,0.432 -1.563,0.484 -1.926,0.119 -0.473,-0.475 -0.242,-1.618 0.633,-3.133 l 0.816,-1.413 c 0.156,0.187 0.39,0.28 0.7,0.28 h 5.3129996 c 0.775,0 1.432,-0.068 1.965,-0.2 -0.008,0.004 -0.014,0.007 -0.022,0.013 -1.038,0.63 -3.14,1.873 -7.2469996,4.202 m 5.3029996,-4.589 h -1.63 c 0.083,-0.228 0.048,-0.479 -0.106,-0.746 l -2.6559996,-4.601 c -0.388,-0.673 -0.776,-1.206 -1.158,-1.601 a 0.184,0.184 0 0 1 0.023,0.012 c 1.064,0.583 3.1879996,1.78 7.2599996,4.173 l 0.233,0.135 c 0.751,0.439 1.2,1.114 1.066,1.61 -0.175,0.646 -1.279,1.018 -3.03,1.018"
     fill="#f58025"
     id="path2" />
  <path
     d="m 14.707911,14.499413 h 0.126 c 0.089,0 0.145,0.046 0.145,0.163 0,0.08 -0.034,0.182 -0.145,0.182 h -0.126 z m 0,0.52 h 0.071 c 0.218,0 0.195,0.125 0.195,0.271 0,0.083 0,0.165 0.037,0.24 h 0.274 c -0.026,-0.051 -0.031,-0.283 -0.031,-0.363 0,-0.221 -0.183,-0.237 -0.243,-0.24 v -0.005 c 0.183,-0.027 0.248,-0.145 0.248,-0.302 0,-0.211 -0.122,-0.326 -0.314,-0.326 h -0.516 v 1.237 h 0.28 z m 0.134,-1.165 c -0.59,0 -1.064,0.471 -1.064,1.062 0,0.591 0.474,1.067 1.064,1.067 0.589,0 1.06,-0.476 1.06,-1.067 0,-0.591 -0.471,-1.062 -1.06,-1.062 m 0,1.93 a 0.867,0.867 0 0 1 -0.865,-0.868 0.863,0.863 0 0 1 1.725,0 0.868,0.868 0 0 1 -0.86,0.868"
     fill="#f58025"
     id="path1"
     style="opacity:0.988;mix-blend-mode:normal" />
</svg>
