<?xml version="1.0" encoding="UTF-8" standalone="no"?>
<svg
   version="1.1"
   width="1024"
   height="1024"
   viewBox="0 0 1024 1024"
   xmlns="http://www.w3.org/2000/svg">
  <defs>
    <linearGradient id="portfolioGradient" x1="0%" y1="0%" x2="100%" y2="100%">
      <stop offset="0%" style="stop-color:#0ea5e9;stop-opacity:1" />
      <stop offset="100%" style="stop-color:#6366f1;stop-opacity:1" />
    </linearGradient>
  </defs>
  <!-- Background circle -->
  <circle cx="512" cy="512" r="480" fill="url(#portfolioGradient)" opacity="0.1"/>
  
  <!-- Main icon: Browser window with code -->
  <g transform="translate(512, 512)">
    <!-- Browser window frame -->
    <rect x="-280" y="-200" width="560" height="400" rx="20" ry="20" 
          fill="none" stroke="url(#portfolioGradient)" stroke-width="20"/>
    
    <!-- Browser top bar -->
    <rect x="-280" y="-200" width="560" height="60" rx="20" ry="20" 
          fill="url(#portfolioGradient)" opacity="0.2"/>
    
    <!-- Browser buttons -->
    <circle cx="-230" cy="-170" r="12" fill="#ef4444"/>
    <circle cx="-190" cy="-170" r="12" fill="#eab308"/>
    <circle cx="-150" cy="-170" r="12" fill="#22c55e"/>
    
    <!-- Code lines representation -->
    <rect x="-220" y="-100" width="140" height="12" rx="6" fill="url(#portfolioGradient)" opacity="0.6"/>
    <rect x="-60" y="-100" width="100" height="12" rx="6" fill="url(#portfolioGradient)" opacity="0.4"/>
    <rect x="60" y="-100" width="80" height="12" rx="6" fill="url(#portfolioGradient)" opacity="0.6"/>
    
    <rect x="-220" y="-60" width="180" height="12" rx="6" fill="url(#portfolioGradient)" opacity="0.4"/>
    <rect x="-20" y="-60" width="120" height="12" rx="6" fill="url(#portfolioGradient)" opacity="0.6"/>
    
    <rect x="-220" y="-20" width="100" height="12" rx="6" fill="url(#portfolioGradient)" opacity="0.6"/>
    <rect x="-100" y="-20" width="140" height="12" rx="6" fill="url(#portfolioGradient)" opacity="0.4"/>
    <rect x="60" y="-20" width="60" height="12" rx="6" fill="url(#portfolioGradient)" opacity="0.6"/>
    
    <rect x="-220" y="20" width="160" height="12" rx="6" fill="url(#portfolioGradient)" opacity="0.4"/>
    <rect x="-40" y="20" width="100" height="12" rx="6" fill="url(#portfolioGradient)" opacity="0.6"/>
    
    <rect x="-220" y="60" width="120" height="12" rx="6" fill="url(#portfolioGradient)" opacity="0.6"/>
    <rect x="-80" y="60" width="140" height="12" rx="6" fill="url(#portfolioGradient)" opacity="0.4"/>
    
    <rect x="-220" y="100" width="180" height="12" rx="6" fill="url(#portfolioGradient)" opacity="0.4"/>
    <rect x="-20" y="100" width="80" height="12" rx="6" fill="url(#portfolioGradient)" opacity="0.6"/>
  </g>
</svg>